<?xml version="1.0" encoding="UTF-8"?>
<svg width="967.56" height="967.56" version="1.1" viewBox="0 0 256 256" xmlns="http://www.w3.org/2000/svg">
<g transform="matrix(.99549 0 0 .99549 .57855 .57676)" fill="#fff">
<ellipse transform="matrix(.98635 -.16465 .016036 .99987 0 0)" cx="127.71" cy="138.41" rx="129.7" ry="88.468" fill-rule="evenodd" stroke-width=".28287"/>
<path d="m170.52 179.53c27.941 11.759 28.828 31.033 31.965 49.682 14.92-22.003 23.4-47.074 23.36-76.202z"/>
</g>
<g transform="matrix(.95822 0 0 .95822 5.3556 5.339)" fill="#c30407">
<ellipse transform="matrix(.98635 -.16465 .016036 .99987 0 0)" cx="127.71" cy="138.41" rx="129.7" ry="88.468" fill-rule="evenodd" stroke-width=".28287"/>
<path d="m170.52 179.53c27.941 11.759 28.828 31.033 31.965 49.682 14.92-22.003 23.4-47.074 23.36-76.202z"/>
</g>
<g>
<g transform="matrix(1.0423 -.10345 .096187 1.0244 -1.2414 -3.5049)" fill="#fff" stroke-width="3.3171" aria-label="quiki">
<path d="m51.598 136.6c-0.47165 2.3973-1.0908 5.133-1.8574 8.2068-0.76661 3.0739-2.0872 5.989-3.9617 8.7453-1.7882 2.7608-4.3779 5.1337-7.769 7.1185-3.3003 1.9031-7.8471 2.8326-13.64 2.7885-3.8819-0.20345-6.5836-1.4696-8.1051-3.7984-1.5215-2.3288-2.1805-5.4342-1.9771-9.3161 0.12659-2.4154 0.65945-5.1556 1.5986-8.2204 1.0254-3.0603 2.3119-6.1502 3.8594-9.2697 1.6383-3.2012 3.5309-6.3026 5.6777-9.3042s4.4481-5.649 6.9039-7.9424c2.4603-2.3796 5.0228-4.2349 7.6876-5.5658 2.6693-1.4172 5.3842-2.0534 8.1447-1.9087 3.3643 0.17632 5.6937 1.1202 6.988 2.8315s2.069 4.2605 2.324 7.6475l3.3221 57.478c-0.78891 5.6339-3.7416 6.2609-3.7416 6.2609s-1.3759-2.007-1.6445-5.1351c-0.18231-3.1236 0.15717 0.96667-0.15698-2.9424-0.22788-3.9045-0.27494-3.3066-0.57552-7.4744l-0.4426-6.1871c-0.21884-4.0771-0.50116-7.7682-0.84695-11.073-0.25953-3.3007-0.54618-6.0838-0.85996-8.3493-0.30926-2.3518-0.61834-3.8817-0.92723-4.5899zm-31.04 14.609c-0.09946 1.8978-0.02415 4.0079 0.36648 4.8068 0.48142 0.71725 1.8739 2.1922 3.4363 2.6729 2.6021 0.39218 5.5651-0.56089 7.8668-1.5648 2.3062-1.0902 4.3875-2.8409 6.2439-5.2522 1.9472-2.493 3.6991-5.3855 5.2556-8.6775 1.5611-3.3783 2.8656-6.8132 3.9136-10.305 1.1388-3.5734 1.9644-6.947 2.4767-10.121 0.60312-3.2555 0.92032-6.0069 0.9516-8.2543-4.0545-0.21249-7.8771 0.92796-11.468 3.4213s-6.741 5.6586-9.4506 9.4957c-2.7097 3.8371-4.9153 7.9601-6.6169 12.369-1.6153 4.4134-2.7904 7.8717-2.9757 11.409z"/>
<path d="m97.89 154.56q-0.59897 1.5256-2.8117 4.1345-2.0766 2.4862-4.9364 5.0612-2.853 2.4455-5.9376 4.3599-2.9485 1.7918-5.1482 1.6765-4.1407-0.21701-6.6546-4.2414-2.3845-4.0176-3.4892-10.174-1.1046-6.1563-1.2357-13.559-0.12427-7.5322 0.11932-14.656t0.54875-12.947q0.30516-5.8229 0.07295-8.8194 0.5854-1.2668 1.3754-1.485 0.91935-0.21132 2.0839-0.15029 1.0352 0.0542 1.798 0.35373 0.89222 0.30627 1.4714 1.6342-0.0746 1.4234-0.25091 4.7877-0.04692 3.3711-0.01191 7.6548 0.04179 4.1543 0.05645 8.8262 0.02144 4.5425-0.06616 8.69 0.04179 4.1543-0.0051 7.5254 0.08926 3.2485 0.13728 4.8081 0.08193 0.91256 0.10282 2.9897 0.15029 2.0839 0.41642 4.4334 0.40231 2.2269 0.95435 4.0724 0.68145 1.8523 1.8392 2.0427 1.941 0.10172 3.9701-1.4787 2.1585-1.5737 4.2351-4.0599 2.0766-2.4862 3.9215-5.5036 1.8449-3.0174 3.2881-5.7963 1.5793-2.9016 2.3484-5.1968 0.89845-2.2885 1.0821-3.3169 0.37408-2.1862 0.8431-6.184 0.4758-4.1272 0.84933-8.7787 0.37353-4.6515 0.59054-8.7922 0.3464-4.134 0.46169-6.3337l7.0965 0.76118q-0.4199 10.488-1.1263 19.015-0.69958 8.3973-0.96351 15.909-0.25715 7.3824 0.41184 14.424 0.66898 7.0417 2.993 14.689-0.40854 0.36785-1.607 0.95381-1.2053 0.71535-1.7228 0.68822-3.2349-0.16953-4.2842-2.4303-0.92668-2.1246-1.1657-4.9917-0.10282-2.9897-0.21243-5.85 0.02658-2.9829-1.438-4.7465z"/>
<path d="m114.07 165.37q0.4408-8.4108 0.54087-17.748 0.22947-9.3302 0.33632-18.797 0.24303-9.589 0.85391-18.769t2.0665-17.149q0.26558-0.11584 1.1714-0.06837 1.042-0.07515 1.4302-0.0548 1.8116 0.09494 2.8128 0.79618 1.1374 0.57862 1.0357 2.5196-0.40011 7.6345-1.0042 16.686-0.46792 8.9284-1.0856 18.238-0.48148 9.1872-0.95618 18.245t-0.60245 16.447q0.0141 2.2065-1.055 2.7993-0.94647 0.72891-2.3698 0.65432-1.5528-0.0814-2.5473-0.91202-1.0013-0.70124-0.6272-2.8874zm2.0088-92.798q0.0814-1.5528 1.1437-2.0161 1.0623-0.46334 2.3563-0.39552 2.588 0.13563 3.1468 1.8517 0.55883 1.7161 0.44354 3.9158-0.85098 1.3827-2.0495 1.9686-1.1917 0.45656-2.4721 0.12995-1.1442-0.44923-1.9822-1.7907-0.70857-1.3347-0.5865-3.6638z"/>
<path d="m134.5 68.665q2.853-2.4455 4.3786-1.8466 1.655 0.60575 2.2755 3.6226 0.62041 3.0168 0.49889 7.8113-0.12151 4.7945-0.69904 10.863-0.44134 5.9455-1.3116 12.647-0.86344 6.5722-1.5907 13.022-0.72049 6.3201-1.155 12.136t-0.14076 10.113l0.38819 0.0203q0.2588 0.0136 0.39498-0.10905 7.0813-6.376 12.78-13.603 5.6986-7.227 10.315-13.603 4.6228-6.5049 8.1154-11.252 3.622-4.7408 6.5637-6.4032 1.941 0.10172 3.201 0.81652 1.3895 0.72158 1.2674 3.0507-0.0136 0.2588-0.17687 0.899-0.0271 0.51759-0.0407 0.77639-3.5808 6.4297-7.8154 12.955-4.2278 6.3958-9.0822 12.37-4.8544 5.9737-10.451 11.26-5.4675 5.2928-11.787 9.503-7e-3 0.1294-0.15652 0.51081-0.0136 0.2588-0.0203 0.3882-0.0678 1.294 1.9212 2.9552 2.1184 1.668 5.2787 3.261 3.2898 1.5997 7.2265 3.2333 4.0661 1.6404 7.8938 2.879 3.9571 1.2454 7.2875 2.0687 3.4598 0.83008 5.4008 0.93181-0.0271 0.51759-0.10172 1.941 0.0548 1.4302-0.28537 2.9694-0.34018 1.5392-1.055 2.7993-0.70802 1.1307-2.1314 1.0561l-0.51759-0.0271q-0.2588-0.0136-0.38142-0.14974l-36.228-16.82q-0.5295 7.6277-1.6862 12.368-1.1499 4.6108-2.5592 6.7428-1.2866 2.2681-2.7032 2.0641-1.2872-0.19721-2.2206-2.1924z"/>
<path d="m180.81 165.37q0.4408-8.4108 0.54087-17.748 0.22947-9.3302 0.33632-18.797 0.24303-9.589 0.85391-18.769t2.0665-17.149q0.26558-0.11584 1.1714-0.06837 1.042-0.07515 1.4302-0.0548 1.8116 0.09494 2.8128 0.79618 1.1375 0.57862 1.0357 2.5196-0.40011 7.6345-1.0042 16.686-0.46792 8.9284-1.0856 18.238-0.48148 9.1872-0.95618 18.245t-0.60245 16.447q0.0141 2.2065-1.055 2.7993-0.94648 0.72891-2.3698 0.65432-1.5528-0.0814-2.5473-0.91202-1.0013-0.70124-0.6272-2.8874zm2.0088-92.798q0.0814-1.5528 1.1437-2.0161 1.0623-0.46334 2.3563-0.39552 2.588 0.13563 3.1468 1.8517 0.55882 1.7161 0.44354 3.9158-0.85098 1.3827-2.0495 1.9686-1.1917 0.45656-2.4721 0.12995-1.1442-0.44923-1.9822-1.7907-0.70857-1.3347-0.5865-3.6638z"/>
</g>
</g>
</svg>