<?xml version="1.0" encoding="UTF-8" standalone="no"?>
<svg
   xmlns:dc="http://purl.org/dc/elements/1.1/"
   xmlns:cc="http://creativecommons.org/ns#"
   xmlns:rdf="http://www.w3.org/1999/02/22-rdf-syntax-ns#"
   xmlns:svg="http://www.w3.org/2000/svg"
   xmlns="http://www.w3.org/2000/svg"
   xmlns:sodipodi="http://sodipodi.sourceforge.net/DTD/sodipodi-0.dtd"
   xmlns:inkscape="http://www.inkscape.org/namespaces/inkscape"
   inkscape:export-ydpi="96"
   inkscape:export-xdpi="96"
   inkscape:export-filename="C:\Users\Maciej\Downloads\logo.png"
   width="394"
   height="256"
   viewBox="0 0 393.99998 256.00001"
   version="1.1"
   id="svg24"
   sodipodi:docname="logo.svg"
   inkscape:version="1.0beta2 (77dacd4, 2019-12-07)">
  <defs
     id="defs18">
    <rect
       id="rect9"
       height="117.68277"
       width="157.07872"
       y="77.276672"
       x="46.467018" />
  </defs>
  <sodipodi:namedview
     id="base"
     pagecolor="#000000"
     bordercolor="#666666"
     borderopacity="1.0"
     inkscape:pageopacity="0"
     inkscape:pageshadow="2"
     inkscape:zoom="1.979899"
     inkscape:cx="201.10969"
     inkscape:cy="157.61876"
     inkscape:document-units="px"
     inkscape:current-layer="text15"
     inkscape:document-rotation="0"
     showgrid="false"
     inkscape:showpageshadow="false"
     inkscape:pagecheckerboard="true"
     units="px"
     inkscape:window-width="1920"
     inkscape:window-height="1007"
     inkscape:window-x="-9"
     inkscape:window-y="-9"
     inkscape:window-maximized="1">
    <sodipodi:guide
       id="guide854"
       orientation="0,256"
       position="0,256" />
    <sodipodi:guide
       id="guide856"
       orientation="256,0"
       position="256,256" />
    <sodipodi:guide
       id="guide858"
       orientation="0,-256"
       position="256,0" />
    <sodipodi:guide
       id="guide860"
       orientation="-256,0"
       position="0,0" />
  </sodipodi:namedview>
  <metadata
     id="metadata21">
    <rdf:RDF>
      <cc:Work
         rdf:about="">
        <dc:format>image/svg+xml</dc:format>
        <dc:type
           rdf:resource="http://purl.org/dc/dcmitype/StillImage" />
        <dc:title />
      </cc:Work>
    </rdf:RDF>
  </metadata>
  <g
     inkscape:label="text 1"
     id="layer5"
     inkscape:groupmode="layer" />
  <g
     inkscape:label="background"
     id="layer2"
     inkscape:groupmode="layer">
    <ellipse
       transform="matrix(0.94843219,-0.31698008,0.27606683,0.96113844,0,0)"
       ry="98.19677"
       rx="129.52983"
       cy="162.12155"
       cx="87.769707"
       id="path862"
       style="fill:#c30407;fill-opacity:1;stroke:#333333;stroke-width:3.00137747;stroke-miterlimit:4;stroke-dasharray:none;stroke-opacity:1" />
    <ellipse
       ry="13.637059"
       rx="0.75761443"
       cy="105.05586"
       cx="224.00133"
       id="path864"
       style="fill:#c30407;fill-opacity:1;stroke-width:9" />
  </g>
  <g
     inkscape:label="background-misc"
     id="layer3"
     inkscape:groupmode="layer">
    <path
       sodipodi:nodetypes="ccsc"
       inkscape:connector-curvature="0"
       id="path867"
       d="m 196.67239,200.75294 c 9.39893,1.07075 15.17023,7.59993 16.33702,33.34836 14.81518,-24.20107 18.51405,-40.83491 20.4859,-54.01916 2.23718,-14.95826 1.86374,-18.01734 1.86374,-18.01734"
       style="fill:#c30407;fill-opacity:1;stroke:#333333;stroke-width:3;stroke-linecap:butt;stroke-linejoin:miter;stroke-miterlimit:4;stroke-dasharray:none;stroke-opacity:1" />
  </g>
  <g
     inkscape:label="text"
     inkscape:groupmode="layer"
     id="layer1">
    <text
       style="font-style:normal;font-weight:normal;font-size:40px;line-height:1.25;font-family:sans-serif;white-space:pre;shape-inside:url(#rect9);fill:#000000;fill-opacity:1;stroke:none;"
       id="text7"
       xml:space="preserve" />
    <g
       transform="translate(3.0304576,3.0304576)"
       id="g928">
      <g
         style="font-style:normal;font-weight:normal;font-size:148.755px;line-height:1.25;font-family:sans-serif;fill:#000000;fill-opacity:1;stroke:#333333;stroke-width:3;stroke-miterlimit:4;stroke-dasharray:none;stroke-opacity:1"
         id="text15"
         aria-label="Quiki">
        <path
           id="path850"
           style="font-style:normal;font-variant:normal;font-weight:normal;font-stretch:normal;font-family:Righteous;-inkscape-font-specification:Righteous;fill:#ffffff;stroke:#333333;stroke-width:3;stroke-miterlimit:4;stroke-dasharray:none;stroke-opacity:1"
           d="m 141.67215,191.1555 h -23.67878 l -12.49309,-18.73964 q -1.01688,0.14527 -1.96113,0.14527 -0.87161,0 -1.74322,0 -7.408699,0 -14.308956,-1.96113 -6.827622,-1.88849 -12.856267,-5.37494 -5.956011,-3.55908 -10.895142,-8.49821 -4.939131,-4.93913 -8.498211,-10.89514 -3.486445,-6.02864 -5.447571,-12.85627 -1.888491,-6.90025 -1.888491,-14.30895 0,-7.4087 1.888491,-14.30895 1.961126,-6.900259 5.447571,-12.85627 3.55908,-5.956011 8.498211,-10.895142 4.939131,-4.939131 10.895142,-8.425576 6.028645,-3.486446 12.856267,-5.374937 6.900257,-1.961126 14.308956,-1.961126 7.40869,0 14.30895,1.961126 6.90026,1.888491 12.85627,5.374937 5.95601,3.486445 10.89514,8.425576 4.93913,4.939131 8.42558,10.895142 3.48644,5.956011 5.37493,12.85627 1.96113,6.90025 1.96113,14.30895 0,7.69923 -2.17903,14.96266 -2.10639,7.26343 -6.02864,13.58261 -3.92226,6.24655 -9.5151,11.33095 -5.5202,5.0844 -12.34782,8.49821 z m -6.75499,-72.48901 q 0,-6.82762 -2.61484,-12.85627 -2.61483,-6.101276 -7.11815,-10.531967 -4.4307,-4.503326 -10.53198,-7.11816 -6.02864,-2.614834 -12.85626,-2.614834 -6.900259,0 -12.928904,2.614834 -6.028646,2.614834 -10.531971,7.11816 -4.503325,4.430691 -7.118159,10.531967 -2.614834,6.02865 -2.614834,12.85627 0,6.82762 2.614834,12.85627 2.614834,5.95601 7.118159,10.45933 4.503325,4.50333 10.531971,7.11816 6.028645,2.61484 12.928904,2.61484 6.82762,0 12.85626,-2.61484 6.10128,-2.61483 10.53198,-7.11816 4.50332,-4.50332 7.11815,-10.45933 2.61484,-6.02865 2.61484,-12.85627 z" />
        <path
           id="path852"
           style="font-style:normal;font-variant:normal;font-weight:normal;font-stretch:normal;font-family:Righteous;-inkscape-font-specification:Righteous;fill:#ffffff;stroke:#333333;stroke-width:3;stroke-miterlimit:4;stroke-dasharray:none;stroke-opacity:1"
           d="m 224.25732,161.23018 q -2.39693,2.17903 -5.15703,4.14015 -2.68747,1.88849 -5.66547,3.34118 -2.97801,1.38005 -6.17392,2.17903 -3.12327,0.87161 -6.39181,0.87161 -7.1908,0 -13.50998,-2.5422 -6.31918,-2.5422 -11.11305,-7.19079 -4.72122,-4.72123 -7.48133,-11.40359 -2.68746,-6.75498 -2.68746,-15.10793 V 92.51815 h 19.75652 v 42.99949 q 0,3.92225 1.16215,7.04553 1.23478,3.05064 3.26854,5.15703 2.03376,2.1064 4.72123,3.19591 2.7601,1.08952 5.88338,1.08952 3.05064,0 5.7381,-1.38006 2.76011,-1.45268 4.79387,-3.77698 2.03376,-2.3243 3.1959,-5.22967 1.16215,-2.978 1.16215,-6.10128 V 92.51815 h 19.82916 v 77.79131 h -4.79386 z" />
        <path
           id="path854"
           style="font-style:normal;font-variant:normal;font-weight:normal;font-stretch:normal;font-family:Righteous;-inkscape-font-specification:Righteous;fill:#ffffff;stroke:#333333;stroke-width:3;stroke-miterlimit:4;stroke-dasharray:none;stroke-opacity:1"
           d="m 274.15708,71.381575 q 0,2.760102 -1.08951,5.157033 -1.01688,2.396932 -2.83274,4.212789 -1.81586,1.743222 -4.28542,2.832737 -2.39693,1.016879 -5.15704,1.016879 -2.7601,0 -5.22966,-1.016879 -2.39694,-1.089515 -4.21279,-2.832737 -1.74323,-1.815857 -2.83274,-4.212789 -1.01688,-2.396931 -1.01688,-5.157033 0,-2.687469 1.01688,-5.0844 1.08951,-2.469566 2.83274,-4.212788 1.81585,-1.815857 4.21279,-2.832737 2.46956,-1.089514 5.22966,-1.089514 2.76011,0 5.15704,1.089514 2.46956,1.01688 4.28542,2.832737 1.81586,1.743222 2.83274,4.212788 1.08951,2.396931 1.08951,5.0844 z m -3.41381,98.927885 H 250.76884 V 92.51815 h 19.97443 z" />
        <path
           id="path856"
           style="font-style:normal;font-variant:normal;font-weight:normal;font-stretch:normal;font-family:Righteous;-inkscape-font-specification:Righteous;fill:#ffffff;stroke:#333333;stroke-width:3;stroke-miterlimit:4;stroke-dasharray:none;stroke-opacity:1"
           d="M 305.89825,170.30946 H 285.92383 V 61.575947 h 19.97442 v 68.566763 l 29.56216,-37.479292 h 22.80716 l -25.78517,32.394892 25.78517,45.25115 h -22.80716 l -15.76164,-28.25473 -13.80052,18.30384 z" />
        <path
           id="path858"
           style="font-style:normal;font-variant:normal;font-weight:normal;font-stretch:normal;font-family:Righteous;-inkscape-font-specification:Righteous;fill:#ffffff;stroke:#333333;stroke-width:3;stroke-miterlimit:4;stroke-dasharray:none;stroke-opacity:1"
           d="m 389.50031,71.381575 q 0,2.760102 -1.08951,5.157033 -1.01688,2.396932 -2.83274,4.212789 -1.81586,1.743222 -4.28542,2.832737 -2.39693,1.016879 -5.15704,1.016879 -2.7601,0 -5.22966,-1.016879 -2.39693,-1.089515 -4.21279,-2.832737 -1.74322,-1.815857 -2.83274,-4.212789 -1.01688,-2.396931 -1.01688,-5.157033 0,-2.687469 1.01688,-5.0844 1.08952,-2.469566 2.83274,-4.212788 1.81586,-1.815857 4.21279,-2.832737 2.46956,-1.089514 5.22966,-1.089514 2.76011,0 5.15704,1.089514 2.46956,1.01688 4.28542,2.832737 1.81586,1.743222 2.83274,4.212788 1.08951,2.396931 1.08951,5.0844 z M 386.0865,170.30946 H 366.11207 V 92.51815 h 19.97443 z" />
      </g>
    </g>
  </g>
</svg>
